<svg width="30" height="150" viewBox="0 0 51 183" fill="none" xmlns="http://www.w3.org/2000/svg">
<path d="M0.150569 93.2699V87.304C8.24716 87.2566 13.7869 85.7178 16.7699 82.6875C19.8002 79.6098 21.3153 74.0701 21.3153 66.0682V33.6818C21.3153 28.0473 21.8598 23.1705 22.9489 19.0511C24.0852 14.9318 25.8371 11.5227 28.2045 8.82386C30.572 6.07765 33.6259 4.04166 37.3665 2.7159C41.107 1.39014 45.6051 0.727263 50.8608 0.727263V8.39773C45.7472 8.35038 41.6042 9.22632 38.4318 11.0256C35.3068 12.7775 33.0104 15.5237 31.5426 19.2642C30.1222 23.0047 29.4119 27.8106 29.4119 33.6818V67.9858C29.4119 72.3419 28.9384 76.1061 27.9915 79.2784C27.0919 82.4508 25.553 85.0786 23.375 87.1619C21.197 89.1979 18.214 90.7367 14.4261 91.7784C10.6383 92.7727 5.87974 93.2699 0.150569 93.2699ZM50.8608 182.545C45.6051 182.545 41.107 181.883 37.3665 180.557C33.6259 179.231 30.572 177.195 28.2045 174.449C25.8371 171.75 24.0852 168.341 22.9489 164.222C21.8598 160.102 21.3153 155.225 21.3153 149.591V117.205C21.3153 109.203 19.8002 103.687 16.7699 100.656C13.7869 97.5786 8.24716 96.0161 0.150569 95.9688V90.0028C5.87974 90.0502 10.6383 90.5947 14.4261 91.6364C18.214 92.6307 21.197 94.1458 23.375 96.1818C25.553 98.2178 27.0919 100.822 27.9915 103.994C28.9384 107.167 29.4119 110.931 29.4119 115.287V149.591C29.4119 155.462 30.1222 160.268 31.5426 164.009C33.0104 167.749 35.3068 170.495 38.4318 172.247C41.6042 173.999 45.7472 174.875 50.8608 174.875V182.545ZM0.150569 95.9688V87.304H15.9886V95.9688H0.150569Z" fill="url(#paint0_linear_4_71)"/>
<defs>
<linearGradient id="paint0_linear_4_71" x1="22.5" y1="-41" x2="22.5" y2="201" gradientUnits="userSpaceOnUse">
<stop stop-color="#D9FDA9"/>
<stop offset="1" stop-color="#64FEB8"/>
</linearGradient>
</defs>
</svg>
