<svg width="105" height="44" viewBox="0 0 105 44" fill="none" xmlns="http://www.w3.org/2000/svg">
<path d="M3.17045 35V8.81818H18.9716V11.6307H6.34091V20.4773H18.1534V23.2898H6.34091V32.1875H19.1761V35H3.17045ZM45.4474 8.81818V35H42.3793L28.1122 14.4432H27.8565V35H24.6861V8.81818H27.7543L42.0724 29.4261H42.3281V8.81818H45.4474Z" fill="white"/>
<path d="M51.2756 35V8.81818H68.6108V13.3821H56.8111V19.6207H67.4602V24.1847H56.8111V35H51.2756ZM77.8697 8.81818V35H72.3342V8.81818H77.8697ZM81.4268 13.3821V8.81818H102.93V13.3821H94.9141V35H89.4425V13.3821H81.4268Z" fill="white"/>
</svg>
